<svg width="512" height="512" viewBox="0 0 512 512" xmlns="http://www.w3.org/2000/svg" role="img" aria-label="Panda audio drama app">
  <rect width="512" height="512" rx="108" fill="#f1e2c5"/>
  <path d="M49 392c78-78 146-108 211-94 53 11 92 49 151 94 17 13 34 25 52 35H49z" fill="#315f4c" opacity=".16"/>
  <path d="M112 167c-28-38-11-86 34-92 39-5 70 30 60 72" fill="#1f211f"/>
  <path d="M400 167c28-38 11-86-34-92-39-5-70 30-60 72" fill="#1f211f"/>
  <circle cx="256" cy="248" r="142" fill="#fff9ec" stroke="#1f211f" stroke-width="16"/>
  <path d="M132 224c-18 45 5 95 44 102 34 6 66-23 72-63 6-44-21-82-60-82-24 0-46 16-56 43zM380 224c18 45-5 95-44 102-34 6-66-23-72-63-6-44 21-82 60-82 24 0 46 16 56 43z" fill="#1f211f"/>
  <circle cx="200" cy="245" r="18" fill="#fff9ec"/>
  <circle cx="312" cy="245" r="18" fill="#fff9ec"/>
  <circle cx="206" cy="251" r="8" fill="#1f211f"/>
  <circle cx="306" cy="251" r="8" fill="#1f211f"/>
  <path d="M244 288c5-8 19-8 24 0 4 7-3 15-12 15s-16-8-12-15z" fill="#1f211f"/>
  <path d="M223 319c19 18 47 18 66 0" fill="none" stroke="#1f211f" stroke-width="10" stroke-linecap="round"/>
  <circle cx="164" cy="302" r="17" fill="#d96f60" opacity=".5"/>
  <circle cx="348" cy="302" r="17" fill="#d96f60" opacity=".5"/>
  <path d="M118 252c-27 0-42 18-42 44s15 44 42 44M394 252c27 0 42 18 42 44s-15 44-42 44" fill="none" stroke="#741f1b" stroke-width="18" stroke-linecap="round"/>
  <path d="M110 250c1-86 57-153 146-153s145 67 146 153" fill="none" stroke="#741f1b" stroke-width="16" stroke-linecap="round"/>
  <path d="M387 333c17 17 21 38 7 58" fill="none" stroke="#741f1b" stroke-width="14" stroke-linecap="round"/>
  <circle cx="382" cy="397" r="14" fill="#741f1b"/>
  <path d="M190 402c39 22 94 23 134 0" fill="none" stroke="#315f4c" stroke-width="15" stroke-linecap="round" opacity=".72"/>
</svg>
